<svg width="3381" height="691" viewBox="0 0 3381 691" fill="none" xmlns="http://www.w3.org/2000/svg">
<path d="M977.744 0.669473C973.776 0.414146 971.974 0.19744 970.173 0.19744C845.543 0.186712 720.916 0.139509 596.287 0.457058C592.568 0.465641 587.619 3.40298 585.339 6.55916C561.269 39.844 537.634 73.4592 513.86 106.967C505.646 118.545 497.375 130.08 488.435 142.608C485.435 138.756 483.077 135.982 480.988 133.013C451.604 91.2677 422.207 49.5314 392.968 7.67917C389.551 2.78933 386.184 -0.0128295 379.658 4.41637e-05C256.566 0.242498 133.471 0.188858 10.3763 0.221042C7.43477 0.221042 4.49109 0.502116 0 0.731696C3.03186 5.37908 5.23437 9.01803 7.68463 12.4703C81.3814 116.279 155.061 220.103 229.029 323.71C231.225 326.787 236.476 329.091 240.354 329.168C267.666 329.717 294.989 329.608 322.309 329.647C324.904 329.651 327.499 329.226 331.64 328.866C273.016 246.131 215.251 164.609 156.733 82.0223C159.912 81.37 161.024 80.943 162.137 80.9409C221.382 80.8915 280.627 80.7843 339.87 81.1168C343.013 81.134 347.097 84.1808 349.125 87.0215C391.441 146.305 433.526 205.759 475.64 265.193C479.529 270.681 483.304 276.255 487.763 282.705C491.177 278.236 493.884 274.914 496.359 271.424C539.366 210.716 582.417 150.042 625.215 89.18C629.381 83.2581 633.673 80.6791 641.019 80.7199C696.579 81.0417 752.142 80.8808 807.702 80.9066C810.921 80.9066 814.137 81.2198 819.638 81.5052C760.929 164.731 703.357 246.346 644.672 329.537C675.56 329.537 704.083 329.252 732.596 329.718C740.749 329.851 745.902 327.462 750.815 320.502C808.433 238.862 866.399 157.481 924.267 76.0232C941.721 51.456 959.15 26.8695 977.746 0.663036L977.744 0.669473ZM451.923 334.929C448.54 334.352 447.1 333.895 445.66 333.891C414.052 333.794 382.44 333.582 350.837 333.946C347.645 333.983 343.498 336.822 341.485 339.626C326.598 360.342 312.35 381.534 297.435 402.226C292.507 409.062 292.389 414.061 297.466 421.189C357.043 504.827 416.28 588.718 475.611 672.538C479.688 678.299 483.804 684.028 488.614 690.769C502.482 671.12 515.493 652.61 528.578 634.155C579.152 562.823 629.687 491.462 680.448 420.266C684.683 414.327 685.338 410.139 680.784 403.842C665.656 382.922 651.431 361.318 636.295 340.405C633.866 337.047 628.56 334.06 624.537 333.996C593.551 333.494 562.552 333.738 531.555 333.82C529.617 333.824 527.681 334.414 524.971 334.858C526.993 338.062 528.379 340.478 529.97 342.743C545.692 365.167 561.181 387.771 577.363 409.843C582.123 416.333 581.684 420.738 577.237 426.969C551.93 462.425 526.993 498.156 501.923 533.79C497.554 540 493.151 546.183 488.202 553.174C485.456 549.644 483.675 547.55 482.103 545.306C455.146 506.812 428.535 468.058 401.041 429.969C394.481 420.884 394.933 414.716 401.563 406.487C409.735 396.345 416.769 385.244 424.265 374.537C433.165 361.826 442.036 349.094 451.927 334.929H451.923Z" fill="#EDEDED"/>
<path d="M977.742 0.669473C959.146 26.8759 941.717 51.4603 924.263 76.0296C866.395 157.485 808.428 238.868 750.811 320.509C745.9 327.469 740.747 329.857 732.592 329.724C704.079 329.258 675.556 329.544 644.668 329.544C703.353 246.352 760.924 164.738 819.634 81.5116C814.133 81.2263 810.914 80.9151 807.698 80.913C752.135 80.8872 696.575 81.0482 641.015 80.7263C633.668 80.6834 629.377 83.2624 625.211 89.1865C582.412 150.047 539.362 210.722 496.355 271.43C493.882 274.923 491.175 278.242 487.759 282.712C483.3 276.262 479.525 270.688 475.636 265.199C433.522 205.766 391.437 146.311 349.121 87.028C347.093 84.1872 343.009 81.1404 339.866 81.1233C280.623 80.7907 221.378 80.8958 162.133 80.9473C161.02 80.9473 159.907 81.3764 156.728 82.0287C215.247 164.615 273.012 246.138 331.635 328.872C327.495 329.233 324.9 329.655 322.305 329.653C294.984 329.614 267.66 329.724 240.35 329.175C236.474 329.097 231.223 326.793 229.025 323.716C155.061 220.103 81.3814 116.281 7.68461 12.4725C5.23225 9.02017 3.03186 5.38122 0 0.733841C4.49109 0.504262 7.43265 0.223187 10.3763 0.223187C133.469 0.188858 256.563 0.242498 379.656 4.41637e-05C386.179 -0.0128295 389.549 2.78933 392.965 7.67917C422.205 49.5314 451.602 91.2677 480.986 133.013C483.075 135.982 485.433 138.756 488.433 142.608C497.373 130.08 505.644 118.545 513.858 106.967C537.632 73.4592 561.267 39.8439 585.337 6.55916C587.617 3.40512 592.568 0.467786 596.285 0.457058C720.912 0.137363 845.541 0.184566 970.171 0.19744C971.972 0.19744 973.774 0.414146 977.742 0.669473Z" fill="#EDEDED"/>
<path d="M451.952 334.943C442.061 349.108 433.19 361.84 424.29 374.551C416.792 385.258 409.76 396.359 401.589 406.501C394.958 414.73 394.509 420.896 401.066 429.983C428.56 468.072 455.171 506.825 482.128 545.32C483.701 547.566 485.481 549.658 488.228 553.188C493.176 546.197 497.579 540.014 501.949 533.804C527.018 498.172 551.955 462.439 577.262 426.983C581.709 420.754 582.148 416.35 577.388 409.857C561.206 387.785 545.717 365.181 529.995 342.757C528.406 340.489 527.018 338.074 524.996 334.872C527.707 334.428 529.643 333.838 531.58 333.834C562.575 333.752 593.574 333.508 624.562 334.01C628.585 334.074 633.889 337.061 636.32 340.419C651.458 361.332 665.681 382.936 680.809 403.856C685.363 410.153 684.708 414.341 680.473 420.28C629.713 491.474 579.177 562.837 528.603 634.169C515.518 652.624 502.507 671.134 488.639 690.783C483.831 684.042 479.714 678.313 475.636 672.552C416.305 588.732 357.068 504.841 297.491 421.203C292.415 414.075 292.534 409.076 297.46 402.24C312.376 381.548 326.626 360.356 341.51 339.64C343.526 336.835 347.672 333.999 350.862 333.96C382.465 333.596 414.077 333.808 445.685 333.905C447.127 333.909 448.568 334.366 451.948 334.943H451.952Z" fill="#EDEDED"/>
<path d="M1319.2 431.103L1450.68 175.065H1558.12L1381.38 507.937H1252.37L1084.92 175.068H1189.72L1319.2 431.103Z" fill="#EDEDED"/>
<path d="M1960.04 175.158V248.749H1695.58V304.387H1946.31V374.159H1695.58V432.596H1960.04V508.031H1600.13V175.158L1960.04 175.158Z" fill="#EDEDED"/>
<path d="M2321.3 175.198C2353.26 173.351 2384.37 171.887 2409.25 193.151C2417.65 200.217 2422.98 208.684 2424.78 211.995C2438.09 236.503 2437.67 273.744 2437.67 278.455C2437.67 281.766 2437.67 312.893 2431.44 333.649C2430.54 336.004 2427.9 343.071 2423.88 348.735C2408.78 371.842 2378.56 377.445 2355.47 381.709C2381.26 381.709 2406.56 382.217 2421.67 402.908C2432.76 417.55 2432.76 432.635 2432.76 450.08V508.074H2335.51V463.257C2335.51 454.344 2335.09 445.369 2330.17 436.903C2323.1 426.016 2311.53 424.617 2299.12 423.217H2126.79V508.074H2028.71V175.201L2321.3 175.201L2321.3 175.198ZM2127.27 340.709H2288.87C2307.09 340.709 2319.08 339.753 2326.64 335.489C2340.85 327.023 2341.27 302.959 2341.27 300.604C2341.27 298.248 2341.27 277.048 2332.87 266.226C2325.32 256.74 2311.53 255.849 2297.32 254.896H2127.27V340.709Z" fill="#EDEDED"/>
<path d="M2597.3 175.158V369.447C2597.72 383.581 2598.2 399.622 2606.17 412.352C2616.84 428.329 2637.23 430.684 2671.46 430.241H2771.78C2792.23 427.441 2799.78 424.574 2806.43 418.463C2816.63 408.085 2818.43 390.135 2819.32 376.002V175.158H2916.09V395.802C2915.67 403.825 2915.19 411.844 2913.87 419.866C2912.13 433.043 2906.32 469.393 2873.46 491.037C2850.38 506.123 2827.3 508.478 2801.52 510.834C2771.78 511.342 2734.47 512.298 2704.74 512.298C2670.56 512.298 2636.39 510.834 2602.15 508.986C2595.98 508.031 2589.32 507.078 2583.09 506.122C2556.41 500.967 2532 490.146 2516.9 464.682C2505.39 444.885 2503.17 425.533 2500.95 403.377V175.158H2597.3Z" fill="#EDEDED"/>
<path d="M3073.86 399.125C3073.86 406.7 3073.86 412.811 3076.08 418.478C3079.61 429.299 3088.96 433.563 3109.35 435.41C3129.37 436.366 3153.65 437.318 3173.68 437.766C3194.96 438.274 3216.3 437.322 3238.07 436.874C3241.13 436.874 3254.92 438.274 3264.69 434.011C3274.46 430.255 3282.92 419.877 3282.92 408.547C3282.92 405.748 3282.44 400.081 3278.48 393.97C3270.92 382.64 3261.15 383.084 3238.91 379.772C3192.74 378.881 3141.78 378.373 3096.04 375.57C3081.41 374.614 3066.72 373.214 3052.09 372.258C3047.65 371.303 3042.74 370.859 3038.3 369.903C3032.12 368.947 3010.36 365.192 2995.25 347.751C2985.48 336.42 2976.61 316.176 2976.61 282.182C2976.61 279.827 2976.61 243.541 2984.58 222.341C2987.7 214.319 2992.14 207.256 2997.47 201.142C3015.7 180.389 3039.62 177.078 3065.82 173.767C3100.05 172.367 3139.02 170.967 3173.2 170.967C3210.97 170.967 3248.68 173.323 3286.45 175.17L3303.78 178.034C3310.43 178.925 3332.19 183.189 3349.04 199.677C3370.81 220.938 3370.81 250.604 3369.91 279.823L3274.88 279.379C3269.12 253.916 3264.69 250.604 3239.39 247.805C3216.3 246.405 3192.74 245.449 3169.66 245.449C3151.43 245.449 3128.89 246.405 3110.67 246.849C3098.68 247.293 3087.59 247.805 3080.03 258.179C3078.71 260.027 3074.75 266.202 3074.75 273.265C3074.75 280.328 3078.29 285.998 3080.03 287.842C3088.48 299.172 3099.16 299.62 3111.15 300.576L3304.2 307.642C3329.98 310.506 3339.75 314.261 3350.84 322.728C3366.79 335.014 3381 356.722 3381 405.229C3381 442.978 3374.82 460.867 3365.05 475.509C3361.04 481.175 3357.5 485.439 3352.16 489.642C3337.53 500.972 3318.41 504.283 3298.86 507.595C3260.25 509.95 3222.06 511.797 3183.45 511.797C3141.66 511.797 3095.14 508.998 3052.99 506.642C3032.13 503.331 3008.56 499.067 2993.03 481.179C2975.29 460.87 2975.71 423.633 2975.71 398.677L3073.85 399.122L3073.86 399.125Z" fill="#EDEDED"/>
</svg>
