<svg width="2297" height="342" viewBox="0 0 2297 342" fill="none" xmlns="http://www.w3.org/2000/svg">
<path d="M234.282 260.136L365.762 4.09766H473.2L296.454 336.97H167.452L0 4.10107H104.801L234.282 260.136Z" fill="#EDEDED"/>
<path d="M875.117 4.19141V77.7822H610.661V133.42H861.388V203.191H610.661V261.629H875.117V337.064H515.213V4.19141L875.117 4.19141Z" fill="#EDEDED"/>
<path d="M1236.38 4.23043C1268.33 2.38329 1299.45 0.919122 1324.33 22.1833C1332.73 29.2499 1338.06 37.7163 1339.86 41.0276C1353.17 65.5352 1352.75 102.776 1352.75 107.487C1352.75 110.799 1352.75 141.926 1346.52 162.681C1345.62 165.037 1342.98 172.104 1338.96 177.767C1323.85 200.875 1293.63 206.477 1270.55 210.741C1296.34 210.741 1321.64 211.249 1336.74 231.941C1347.84 246.582 1347.84 261.668 1347.84 279.112V337.106H1250.59V292.29C1250.59 283.376 1250.17 274.401 1245.25 265.935C1238.18 255.049 1226.61 253.649 1214.2 252.249H1041.87V337.106H943.787V4.23374L1236.38 4.23374L1236.38 4.23043ZM1042.35 169.741H1203.94C1222.17 169.741 1234.16 168.785 1241.72 164.522C1255.92 156.055 1256.35 131.992 1256.35 129.636C1256.35 127.281 1256.35 106.081 1247.95 95.2589C1240.39 85.7724 1226.61 84.8811 1212.4 83.9287H1042.35V169.741Z" fill="#EDEDED"/>
<path d="M1512.38 4.19141V198.48C1512.79 212.614 1513.28 228.655 1521.25 241.385C1531.92 257.362 1552.31 259.717 1586.54 259.273H1686.86C1707.3 256.474 1714.86 253.607 1721.51 247.496C1731.7 237.118 1733.5 219.168 1734.4 205.035V4.19141H1831.17V224.835C1830.75 232.858 1830.27 240.877 1828.95 248.899C1827.21 262.076 1821.39 298.426 1788.54 320.07C1765.46 335.155 1742.38 337.511 1716.6 339.867C1686.86 340.375 1649.55 341.331 1619.81 341.331C1585.64 341.331 1551.47 339.866 1517.23 338.019C1511.05 337.064 1504.4 336.111 1498.17 335.155C1471.49 330 1447.08 319.178 1431.97 293.715C1420.46 273.918 1418.25 254.566 1416.03 232.41V4.19141H1512.38Z" fill="#EDEDED"/>
<path d="M1988.94 228.158C1988.94 235.733 1988.94 241.844 1991.15 247.511C1994.69 258.332 2004.04 262.596 2024.43 264.443C2044.45 265.399 2068.73 266.351 2088.76 266.799C2110.04 267.307 2131.38 266.355 2153.15 265.907C2156.21 265.907 2170 267.307 2179.77 263.043C2189.54 259.288 2197.99 248.91 2197.99 237.58C2197.99 234.781 2197.52 229.114 2193.56 223.003C2186 211.673 2176.23 212.117 2153.99 208.805C2107.82 207.914 2056.86 207.405 2011.12 204.603C1996.49 203.647 1981.8 202.247 1967.17 201.291C1962.73 200.336 1957.82 199.891 1953.38 198.936C1947.2 197.98 1925.44 194.225 1910.33 176.784C1900.56 165.453 1891.69 145.209 1891.69 111.215C1891.69 108.86 1891.69 72.5742 1899.66 51.3744C1902.78 43.352 1907.22 36.2888 1912.55 30.1746C1930.78 9.42218 1954.7 6.11089 1980.9 2.79959C2015.13 1.39983 2054.1 0 2088.27 0C2126.05 0 2163.76 2.3556 2201.53 4.20275L2218.85 7.06667C2225.51 7.95804 2247.27 12.2217 2264.12 28.7104C2285.88 49.9712 2285.88 79.6373 2284.98 108.856L2189.96 108.412C2184.2 82.9486 2179.76 79.6374 2154.46 76.8379C2131.38 75.4381 2107.82 74.4823 2084.74 74.4823C2066.51 74.4823 2043.97 75.438 2025.75 75.882C2013.75 76.326 2002.66 76.8379 1995.11 87.2124C1993.79 89.0595 1989.83 95.2347 1989.83 102.298C1989.83 109.361 1993.37 115.031 1995.11 116.875C2003.56 128.205 2014.24 128.653 2026.22 129.609L2219.28 136.675C2245.06 139.539 2254.83 143.294 2265.92 151.761C2281.87 164.047 2296.08 185.755 2296.08 234.262C2296.08 272.011 2289.9 289.9 2280.13 304.541C2276.12 310.208 2272.58 314.472 2267.24 318.675C2252.61 330.005 2233.49 333.316 2213.94 336.628C2175.33 338.983 2137.14 340.83 2098.53 340.83C2056.74 340.83 2010.22 338.031 1968.07 335.675C1947.21 332.364 1923.64 328.1 1908.11 310.212C1890.36 289.903 1890.79 252.666 1890.79 227.71L1988.93 228.155L1988.94 228.158Z" fill="#EDEDED"/>
</svg>
