<svg width="2306" height="1466" viewBox="0 0 2306 1466" fill="none" xmlns="http://www.w3.org/2000/svg">
<path d="M235.235 1378.51L367.25 1102.64H475.125L297.659 1461.3H168.133L0 1102.64H105.228L235.235 1378.51Z" fill="#EDEDED"/>
<path d="M878.675 1102.74V1182.03H613.143V1241.98H864.89V1317.16H613.143V1380.12H878.675V1461.4H517.307V1102.74L878.675 1102.74Z" fill="#EDEDED"/>
<path d="M1241.41 1102.78C1273.49 1100.79 1304.73 1099.21 1329.72 1122.12C1338.15 1129.74 1343.5 1138.86 1345.31 1142.43C1358.67 1168.83 1358.25 1208.96 1358.25 1214.04C1358.25 1217.6 1358.25 1251.14 1351.99 1273.51C1351.09 1276.05 1348.44 1283.66 1344.41 1289.76C1329.24 1314.66 1298.89 1320.7 1275.72 1325.29C1301.61 1325.29 1327.01 1325.84 1342.18 1348.13C1353.32 1363.91 1353.32 1380.16 1353.32 1398.96V1461.45H1255.67V1413.16C1255.67 1403.55 1255.25 1393.88 1250.32 1384.76C1243.21 1373.03 1231.59 1371.52 1219.13 1370.02H1046.11V1461.45H947.623V1102.78L1241.41 1102.78L1241.41 1102.78ZM1046.59 1281.11H1208.84C1227.14 1281.11 1239.18 1280.08 1246.76 1275.49C1261.03 1266.37 1261.45 1240.44 1261.45 1237.9C1261.45 1235.36 1261.45 1212.52 1253.02 1200.86C1245.44 1190.64 1231.59 1189.68 1217.33 1188.65H1046.59V1281.11Z" fill="#EDEDED"/>
<path d="M1518.52 1102.74V1312.08C1518.94 1327.31 1519.43 1344.59 1527.43 1358.31C1538.15 1375.53 1558.62 1378.06 1592.99 1377.58H1693.72C1714.24 1374.57 1721.83 1371.48 1728.51 1364.89C1738.74 1353.71 1740.55 1334.37 1741.45 1319.14V1102.74H1838.61V1340.48C1838.19 1349.12 1837.71 1357.76 1836.39 1366.41C1834.64 1380.61 1828.8 1419.77 1795.81 1443.09C1772.64 1459.35 1749.46 1461.88 1723.57 1464.42C1693.72 1464.97 1656.26 1466 1626.4 1466C1592.09 1466 1557.77 1464.42 1523.4 1462.43C1517.2 1461.4 1510.52 1460.38 1504.25 1459.35C1477.47 1453.79 1452.96 1442.13 1437.8 1414.7C1426.24 1393.36 1424.01 1372.51 1421.78 1348.64V1102.74H1518.52Z" fill="#EDEDED"/>
<path d="M1997.03 1344.06C1997.03 1352.22 1997.03 1358.81 1999.26 1364.91C2002.81 1376.57 2012.2 1381.17 2032.66 1383.16C2052.77 1384.19 2077.15 1385.21 2097.25 1385.69C2118.63 1386.24 2140.05 1385.22 2161.91 1384.73C2164.98 1384.73 2178.83 1386.24 2188.64 1381.65C2198.45 1377.6 2206.94 1366.42 2206.94 1354.21C2206.94 1351.19 2206.46 1345.09 2202.48 1338.5C2194.9 1326.3 2185.08 1326.77 2162.75 1323.21C2116.39 1322.25 2065.23 1321.7 2019.3 1318.68C2004.61 1317.65 1989.86 1316.14 1975.17 1315.11C1970.72 1314.08 1965.78 1313.6 1961.33 1312.57C1955.13 1311.54 1933.27 1307.5 1918.1 1288.7C1908.29 1276.5 1899.38 1254.68 1899.38 1218.06C1899.38 1215.52 1899.38 1176.42 1907.39 1153.58C1910.52 1144.93 1914.98 1137.32 1920.33 1130.74C1938.63 1108.38 1962.65 1104.81 1988.96 1101.24C2023.33 1099.73 2062.46 1098.22 2096.77 1098.22C2134.7 1098.22 2172.56 1100.76 2210.48 1102.75L2227.88 1105.84C2234.56 1106.8 2256.42 1111.39 2273.33 1129.16C2295.18 1152.07 2295.18 1184.03 2294.28 1215.51L2198.87 1215.03C2193.09 1187.6 2188.63 1184.03 2163.23 1181.01C2140.05 1179.51 2116.39 1178.48 2093.22 1178.48C2074.92 1178.48 2052.29 1179.51 2033.99 1179.98C2021.95 1180.46 2010.81 1181.01 2003.23 1192.19C2001.9 1194.18 1997.93 1200.84 1997.93 1208.45C1997.93 1216.06 2001.48 1222.17 2003.23 1224.15C2011.71 1236.36 2022.43 1236.84 2034.47 1237.87L2228.3 1245.49C2254.19 1248.57 2264 1252.62 2275.14 1261.74C2291.15 1274.98 2305.42 1298.37 2305.42 1350.64C2305.42 1391.31 2299.22 1410.58 2289.41 1426.36C2285.38 1432.47 2281.82 1437.06 2276.47 1441.59C2261.78 1453.8 2242.57 1457.37 2222.95 1460.93C2184.18 1463.47 2145.83 1465.46 2107.07 1465.46C2065.11 1465.46 2018.4 1462.44 1976.08 1459.91C1955.13 1456.34 1931.47 1451.74 1915.88 1432.47C1898.06 1410.59 1898.48 1370.47 1898.48 1343.58L1997.02 1344.06L1997.03 1344.06Z" fill="#EDEDED"/>
<path d="M1808.23 0.88254C1803 0.545952 1800.63 0.260277 1798.25 0.260277C1633.96 0.246135 1469.67 0.183909 1305.37 0.602522C1300.47 0.613836 1293.95 4.48601 1290.94 8.64668C1259.21 52.5247 1228.05 96.8383 1196.71 141.01C1185.89 156.273 1174.98 171.479 1163.2 187.994C1159.24 182.917 1156.13 179.26 1153.38 175.345C1114.64 120.315 1075.89 65.2952 1037.35 10.1231C1032.84 3.67707 1028.4 -0.0169126 1019.8 5.82193e-05C857.534 0.319675 695.264 0.248963 532.993 0.29139C529.115 0.29139 525.235 0.66192 519.314 0.964566C523.311 7.09103 526.215 11.8881 529.445 16.4391C626.596 153.286 723.725 290.153 821.234 426.734C824.129 430.79 831.051 433.828 836.164 433.929C872.168 434.653 908.186 434.509 944.201 434.56C947.622 434.566 951.043 434.006 956.501 433.531C879.22 324.465 803.071 216.997 725.929 108.127C730.119 107.267 731.586 106.704 733.053 106.701C811.153 106.636 889.254 106.495 967.351 106.933C971.495 106.956 976.878 110.972 979.552 114.717C1035.34 192.868 1090.81 271.244 1146.33 349.593C1151.46 356.828 1156.43 364.177 1162.31 372.679C1166.81 366.787 1170.38 362.409 1173.64 357.807C1230.34 277.778 1287.09 197.795 1343.51 117.562C1349 109.756 1354.66 106.356 1364.34 106.41C1437.59 106.834 1510.83 106.622 1584.07 106.656C1588.32 106.656 1592.56 107.069 1599.81 107.445C1522.42 217.158 1446.52 324.748 1369.16 434.416C1409.88 434.416 1447.48 434.04 1485.07 434.653C1495.81 434.829 1502.61 431.681 1509.08 422.505C1585.04 314.882 1661.45 207.601 1737.74 100.218C1760.75 67.8324 1783.72 35.421 1808.24 0.874055L1808.23 0.88254ZM1115.07 441.524C1110.61 440.763 1108.71 440.16 1106.81 440.155C1065.14 440.028 1023.47 439.748 981.808 440.228C977.601 440.276 972.134 444.019 969.48 447.715C949.856 475.024 931.073 502.961 911.41 530.239C904.914 539.25 904.759 545.84 911.452 555.237C989.989 665.493 1068.08 776.083 1146.29 886.58C1151.67 894.175 1157.09 901.727 1163.43 910.614C1181.72 884.711 1198.87 860.31 1216.12 835.982C1282.79 741.947 1349.41 647.875 1416.32 554.02C1421.9 546.191 1422.77 540.67 1416.76 532.369C1396.82 504.791 1378.07 476.311 1358.12 448.742C1354.91 444.315 1347.92 440.378 1342.62 440.293C1301.77 439.632 1260.9 439.954 1220.04 440.061C1217.49 440.067 1214.93 440.845 1211.36 441.43C1214.03 445.653 1215.85 448.838 1217.95 451.825C1238.68 481.385 1259.1 511.183 1280.43 540.28C1286.7 548.836 1286.12 554.643 1280.26 562.857C1246.9 609.597 1214.03 656.699 1180.98 703.675C1175.22 711.86 1169.42 720.012 1162.89 729.227C1159.27 724.574 1156.92 721.814 1154.85 718.855C1119.31 668.109 1084.23 617.022 1047.99 566.811C1039.34 554.835 1039.94 546.703 1048.68 535.856C1059.45 522.486 1068.72 507.851 1078.6 493.737C1090.34 476.981 1102.03 460.197 1115.07 441.524H1115.07Z" fill="#EDEDED"/>
<path d="M1808.23 0.88254C1783.72 35.4294 1760.74 67.838 1737.73 100.227C1661.45 207.607 1585.03 314.89 1509.08 422.514C1502.6 431.689 1495.81 434.837 1485.06 434.662C1447.47 434.048 1409.87 434.424 1369.15 434.424C1446.52 324.756 1522.41 217.167 1599.8 107.454C1592.55 107.077 1588.31 106.667 1584.07 106.664C1510.82 106.63 1437.58 106.843 1364.34 106.418C1354.65 106.362 1349 109.762 1343.5 117.571C1287.08 197.8 1230.33 277.787 1173.64 357.815C1170.38 362.42 1166.81 366.796 1162.31 372.687C1156.43 364.185 1151.45 356.837 1146.33 349.601C1090.81 271.253 1035.33 192.876 979.546 114.725C976.873 110.981 971.489 106.964 967.346 106.942C889.248 106.503 811.148 106.642 733.048 106.71C731.581 106.71 730.114 107.275 725.923 108.135C803.066 217.006 879.215 324.473 956.496 433.539C951.038 434.014 947.616 434.571 944.195 434.569C908.18 434.518 872.159 434.662 836.158 433.938C831.049 433.836 824.126 430.798 821.228 426.742C723.725 290.153 626.596 153.289 529.445 16.4419C526.212 11.8909 523.311 7.09385 519.314 0.967394C525.235 0.664748 529.113 0.294219 532.993 0.294219C695.261 0.248963 857.531 0.319675 1019.8 5.82192e-05C1028.4 -0.0169126 1032.84 3.67706 1037.34 10.1231C1075.89 65.2952 1114.64 120.315 1153.38 175.345C1156.13 179.26 1159.24 182.917 1163.2 187.994C1174.98 171.479 1185.88 156.273 1196.71 141.01C1228.05 96.8383 1259.21 52.5247 1290.94 8.64668C1293.95 4.48883 1300.47 0.616664 1305.37 0.602522C1469.66 0.18108 1633.96 0.243306 1798.25 0.260277C1800.63 0.260277 1803 0.545952 1808.23 0.88254Z" fill="#EDEDED"/>
<path d="M1115.1 441.54C1102.07 460.214 1090.37 476.998 1078.64 493.754C1068.75 507.868 1059.48 522.502 1048.71 535.872C1039.97 546.72 1039.38 554.849 1048.02 566.827C1084.27 617.038 1119.35 668.126 1154.88 718.871C1156.96 721.833 1159.3 724.591 1162.92 729.243C1169.45 720.028 1175.25 711.877 1181.01 703.691C1214.06 656.719 1246.93 609.613 1280.3 562.873C1286.16 554.662 1286.74 548.855 1280.46 540.296C1259.13 511.2 1238.71 481.402 1217.99 451.841C1215.89 448.852 1214.06 445.667 1211.4 441.447C1214.97 440.861 1217.52 440.083 1220.08 440.078C1260.93 439.97 1301.8 439.648 1342.65 440.31C1347.95 440.395 1354.94 444.332 1358.15 448.758C1378.11 476.327 1396.85 504.807 1416.8 532.385C1422.8 540.686 1421.94 546.208 1416.35 554.037C1349.44 647.888 1282.82 741.963 1216.15 835.998C1198.9 860.326 1181.75 884.727 1163.47 910.63C1157.13 901.743 1151.7 894.191 1146.33 886.597C1068.11 776.1 990.023 665.51 911.485 555.253C904.792 545.857 904.95 539.267 911.444 530.255C931.106 502.977 949.892 475.041 969.513 447.732C972.17 444.035 977.637 440.296 981.841 440.245C1023.5 439.764 1065.18 440.044 1106.84 440.171C1108.74 440.177 1110.64 440.779 1115.1 441.54H1115.1Z" fill="#EDEDED"/>
</svg>
