<svg width="1289" height="911" viewBox="0 0 1289 911" fill="none" xmlns="http://www.w3.org/2000/svg">
<path d="M1288.92 0.88254C1283.69 0.545952 1281.31 0.260277 1278.94 0.260277C1114.64 0.246135 950.354 0.183909 786.06 0.602522C781.158 0.613836 774.634 4.48601 771.628 8.64668C739.898 52.5247 708.74 96.8383 677.4 141.01C666.572 156.273 655.669 171.479 643.884 187.994C639.929 182.917 636.82 179.26 634.066 175.345C595.33 120.315 556.578 65.2952 518.033 10.1231C513.53 3.67707 509.09 -0.0169126 500.487 5.82193e-05C338.22 0.319675 175.949 0.248963 13.6787 0.29139C9.80095 0.29139 5.92042 0.66192 0 0.964566C3.99677 7.09103 6.90025 11.8881 10.1303 16.4391C107.282 153.286 204.411 290.153 301.919 426.734C304.815 430.79 311.737 433.828 316.849 433.929C352.853 434.653 388.871 434.509 424.887 434.56C428.308 434.566 431.729 434.006 437.187 433.531C359.906 324.465 283.757 216.997 206.614 108.127C210.805 107.267 212.272 106.704 213.739 106.701C291.839 106.636 369.939 106.495 448.037 106.933C452.18 106.956 457.564 110.972 460.237 114.717C516.021 192.868 571.499 271.244 627.017 349.593C632.143 356.828 637.119 364.177 642.998 372.679C647.499 366.787 651.067 362.409 654.33 357.807C711.024 277.778 767.776 197.795 824.195 117.562C829.687 109.756 835.344 106.356 845.029 106.41C918.272 106.834 991.517 106.622 1064.76 106.656C1069 106.656 1073.24 107.069 1080.5 107.445C1003.1 217.158 927.206 324.748 849.845 434.416C890.563 434.416 928.164 434.04 965.751 434.653C976.499 434.829 983.291 431.681 989.768 422.505C1065.72 314.882 1142.14 207.601 1218.42 100.218C1241.43 67.8324 1264.41 35.421 1288.92 0.874055L1288.92 0.88254ZM595.751 441.524C591.292 440.763 589.393 440.16 587.495 440.155C545.828 440.028 504.155 439.748 462.493 440.228C458.286 440.276 452.82 444.019 450.165 447.715C430.541 475.024 411.759 502.961 392.096 530.239C385.6 539.25 385.445 545.84 392.137 555.237C470.675 665.493 548.764 776.083 626.978 886.58C632.353 894.175 637.778 901.727 644.119 910.614C662.401 884.711 679.553 860.31 696.802 835.982C763.472 741.947 830.091 647.875 897.006 554.02C902.589 546.191 903.453 540.67 897.449 532.369C877.507 504.791 858.755 476.311 838.801 448.742C835.599 444.315 828.605 440.378 823.301 440.293C782.453 439.632 741.589 439.954 700.727 440.061C698.173 440.067 695.621 440.845 692.047 441.43C694.713 445.653 696.539 448.838 698.638 451.825C719.363 481.385 739.782 511.183 761.113 540.28C767.388 548.836 766.81 554.643 760.947 562.857C727.586 609.597 694.713 656.699 661.665 703.675C655.905 711.86 650.101 720.012 643.577 729.227C639.956 724.574 637.609 721.814 635.536 718.855C600 668.109 564.92 617.022 528.675 566.811C520.028 554.835 520.623 546.703 529.364 535.856C540.137 522.486 549.409 507.851 559.29 493.737C571.023 476.981 582.717 460.197 595.757 441.524H595.751Z" fill="#EDEDED"/>
<path d="M1288.92 0.88254C1264.4 35.4294 1241.43 67.838 1218.42 100.227C1142.13 207.607 1065.72 314.89 989.762 422.514C983.288 431.689 976.496 434.837 965.746 434.662C928.158 434.048 890.557 434.424 849.839 434.424C927.201 324.756 1003.1 217.167 1080.49 107.454C1073.24 107.077 1068.99 106.667 1064.75 106.664C991.509 106.63 918.266 106.843 845.023 106.418C835.339 106.362 829.681 109.762 824.19 117.571C767.77 197.8 711.018 277.787 654.324 357.815C651.064 362.42 647.496 366.796 642.993 372.687C637.114 364.185 632.137 356.837 627.011 349.601C571.494 271.253 516.015 192.876 460.232 114.725C457.558 110.981 452.175 106.964 448.031 106.942C369.934 106.503 291.833 106.642 213.733 106.71C212.266 106.71 210.799 107.275 206.609 108.135C283.751 217.006 359.9 324.473 437.181 433.539C431.723 434.014 428.302 434.571 424.881 434.569C388.866 434.518 352.845 434.662 316.844 433.938C311.734 433.836 304.812 430.798 301.914 426.742C204.411 290.153 107.282 153.289 10.1303 16.4419C6.89746 11.8909 3.99677 7.09385 0 0.967394C5.92042 0.664748 9.79816 0.294219 13.6787 0.294219C175.946 0.248963 338.217 0.319675 500.485 5.82192e-05C509.084 -0.0169126 513.527 3.67706 518.03 10.1231C556.575 65.2952 595.328 120.315 634.064 175.345C636.818 179.26 639.926 182.917 643.881 187.994C655.667 171.479 666.569 156.273 677.397 141.01C708.737 96.8383 739.895 52.5247 771.626 8.64668C774.632 4.48883 781.158 0.616664 786.057 0.602522C950.348 0.18108 1114.64 0.243306 1278.94 0.260277C1281.31 0.260277 1283.69 0.545952 1288.92 0.88254Z" fill="#EDEDED"/>
<path d="M595.79 441.54C582.751 460.214 571.057 476.998 559.324 493.754C549.44 507.868 540.17 522.502 529.398 535.872C520.657 546.72 520.065 554.849 528.709 566.827C564.954 617.038 600.033 668.126 635.57 718.871C637.643 721.833 639.99 724.591 643.61 729.243C650.134 720.028 655.938 711.877 661.698 703.691C694.746 656.719 727.62 609.613 760.981 562.873C766.843 554.662 767.421 548.855 761.147 540.296C739.815 511.2 719.396 481.402 698.671 451.841C696.576 448.852 694.746 445.667 692.081 441.447C695.654 440.861 698.206 440.083 700.761 440.078C741.62 439.97 782.484 439.648 823.335 440.31C828.638 440.395 835.629 444.332 838.835 448.758C858.791 476.327 877.54 504.807 897.482 532.385C903.486 540.686 902.622 546.208 897.04 554.037C830.124 647.888 763.505 741.963 696.836 835.998C679.587 860.326 662.434 884.727 644.153 910.63C637.814 901.743 632.387 894.191 627.011 886.597C548.798 776.1 470.708 665.51 392.171 555.253C385.478 545.857 385.636 539.267 392.129 530.255C411.792 502.977 430.577 475.041 450.199 447.732C452.856 444.035 458.322 440.296 462.527 440.245C504.188 439.764 545.861 440.044 587.528 440.171C589.43 440.177 591.328 440.779 595.784 441.54H595.79Z" fill="#EDEDED"/>
</svg>
