<svg width="3931" height="1293" viewBox="0 0 3931 1293" fill="none" xmlns="http://www.w3.org/2000/svg">
<g opacity="0.3">
<line x1="1964.88" y1="0.00402832" x2="1964.89" y2="683.004" stroke="#FF0000" stroke-width="7.94186"/>
<line x1="2115.78" y1="0.00402832" x2="2115.78" y2="683.004" stroke="#FF0000" stroke-width="7.94186"/>
<line x1="2266.68" y1="0.00402832" x2="2266.68" y2="683.004" stroke="#FF0000" stroke-width="7.94186"/>
<line x1="2417.57" y1="0.00402832" x2="2417.57" y2="683.004" stroke="#FF0000" stroke-width="7.94186"/>
<line x1="2568.47" y1="0.00402832" x2="2568.47" y2="683.004" stroke="#FF0000" stroke-width="7.94186"/>
<line x1="2719.36" y1="0.00402832" x2="2719.36" y2="683.004" stroke="#FF0000" stroke-width="7.94186"/>
<line x1="2870.26" y1="0.00402832" x2="2870.26" y2="683.004" stroke="#FF0000" stroke-width="7.94186"/>
<line x1="3021.15" y1="0.00402832" x2="3021.15" y2="683.004" stroke="#FF0000" stroke-width="7.94186"/>
<line x1="3172.05" y1="0.00402832" x2="3172.05" y2="683.004" stroke="#FF0000" stroke-width="7.94186"/>
<line x1="3322.94" y1="0.00402832" x2="3322.94" y2="683.004" stroke="#FF0000" stroke-width="7.94186"/>
<line x1="3473.84" y1="0.00402832" x2="3473.84" y2="683.004" stroke="#FF0000" stroke-width="7.94186"/>
<line x1="3624.73" y1="0.00402832" x2="3624.73" y2="683.004" stroke="#FF0000" stroke-width="7.94186"/>
<line x1="3775.63" y1="0.00402832" x2="3775.63" y2="683.004" stroke="#FF0000" stroke-width="7.94186"/>
<line x1="3926.53" y1="0.00402832" x2="3926.53" y2="683.004" stroke="#FF0000" stroke-width="7.94186"/>
<line x1="3913.78" y1="2.82721" x2="1931.77" y2="2.82719" stroke="#FF0000" stroke-width="5.64673"/>
<line x1="3913.78" y1="110.115" x2="1931.77" y2="110.115" stroke="#FF0000" stroke-width="5.64673"/>
<line x1="3913.78" y1="217.403" x2="1931.77" y2="217.403" stroke="#FF0000" stroke-width="5.64673"/>
<line x1="3913.78" y1="324.691" x2="1931.77" y2="324.691" stroke="#FF0000" stroke-width="5.64673"/>
<line x1="3913.78" y1="431.979" x2="1931.77" y2="431.979" stroke="#FF0000" stroke-width="5.64673"/>
<line x1="3913.78" y1="539.267" x2="1931.77" y2="539.267" stroke="#FF0000" stroke-width="5.64673"/>
<line x1="3913.78" y1="646.555" x2="1931.77" y2="646.555" stroke="#FF0000" stroke-width="5.64673"/>
<line x1="1965.61" y1="1293.01" x2="1965.61" y2="610.005" stroke="#FF0000" stroke-width="7.94186"/>
<line x1="1814.72" y1="1293.01" x2="1814.72" y2="610.005" stroke="#FF0000" stroke-width="7.94186"/>
<line x1="1663.82" y1="1293.01" x2="1663.82" y2="610.005" stroke="#FF0000" stroke-width="7.94186"/>
<line x1="1512.93" y1="1293" x2="1512.93" y2="610.005" stroke="#FF0000" stroke-width="7.94186"/>
<line x1="1362.03" y1="1293" x2="1362.03" y2="610.005" stroke="#FF0000" stroke-width="7.94186"/>
<line x1="1211.13" y1="1293" x2="1211.13" y2="610.005" stroke="#FF0000" stroke-width="7.94186"/>
<line x1="1060.24" y1="1293" x2="1060.24" y2="610.005" stroke="#FF0000" stroke-width="7.94186"/>
<line x1="909.344" y1="1293" x2="909.344" y2="610.005" stroke="#FF0000" stroke-width="7.94186"/>
<line x1="758.449" y1="1293" x2="758.449" y2="610.005" stroke="#FF0000" stroke-width="7.94186"/>
<line x1="607.553" y1="1293" x2="607.553" y2="610.005" stroke="#FF0000" stroke-width="7.94186"/>
<line x1="456.658" y1="1293" x2="456.658" y2="610.005" stroke="#FF0000" stroke-width="7.94186"/>
<line x1="305.761" y1="1293" x2="305.762" y2="610.005" stroke="#FF0000" stroke-width="7.94186"/>
<line x1="154.867" y1="1293" x2="154.867" y2="610.005" stroke="#FF0000" stroke-width="7.94186"/>
<line x1="3.97048" y1="1293" x2="3.97054" y2="610.005" stroke="#FF0000" stroke-width="7.94186"/>
<line x1="16.7188" y1="1290.18" x2="1998.72" y2="1290.18" stroke="#FF0000" stroke-width="5.64673"/>
<line x1="16.7188" y1="1182.89" x2="1998.72" y2="1182.89" stroke="#FF0000" stroke-width="5.64673"/>
<line x1="16.7188" y1="1075.61" x2="1998.72" y2="1075.61" stroke="#FF0000" stroke-width="5.64673"/>
<line x1="16.7188" y1="968.318" x2="1998.72" y2="968.318" stroke="#FF0000" stroke-width="5.64673"/>
<line x1="16.7188" y1="861.03" x2="1998.72" y2="861.03" stroke="#FF0000" stroke-width="5.64673"/>
<line x1="16.7188" y1="753.742" x2="1998.72" y2="753.742" stroke="#FF0000" stroke-width="5.64673"/>
<line x1="16.7188" y1="646.454" x2="1998.72" y2="646.454" stroke="#FF0000" stroke-width="5.64673"/>
<line y1="-3.97093" x2="683" y2="-3.97093" transform="matrix(-8.74228e-08 -1 -1 8.74228e-08 1960.71 1293)" stroke="#FF0000" stroke-width="7.94186"/>
<line y1="-3.97093" x2="683" y2="-3.97093" transform="matrix(-8.74228e-08 -1 -1 8.74228e-08 2111.61 1293)" stroke="#FF0000" stroke-width="7.94186"/>
<line y1="-3.97093" x2="683" y2="-3.97093" transform="matrix(-8.74228e-08 -1 -1 8.74228e-08 2262.5 1293)" stroke="#FF0000" stroke-width="7.94186"/>
<line y1="-3.97093" x2="683" y2="-3.97093" transform="matrix(-8.74228e-08 -1 -1 8.74228e-08 2413.4 1293)" stroke="#FF0000" stroke-width="7.94186"/>
<line y1="-3.97093" x2="683" y2="-3.97093" transform="matrix(-8.74228e-08 -1 -1 8.74228e-08 2564.29 1293)" stroke="#FF0000" stroke-width="7.94186"/>
<line y1="-3.97093" x2="683" y2="-3.97093" transform="matrix(-8.74228e-08 -1 -1 8.74228e-08 2715.19 1293)" stroke="#FF0000" stroke-width="7.94186"/>
<line y1="-3.97093" x2="683" y2="-3.97093" transform="matrix(-8.74228e-08 -1 -1 8.74228e-08 2866.08 1293)" stroke="#FF0000" stroke-width="7.94186"/>
<line y1="-3.97093" x2="683" y2="-3.97093" transform="matrix(-8.74228e-08 -1 -1 8.74228e-08 3016.98 1293)" stroke="#FF0000" stroke-width="7.94186"/>
<line y1="-3.97093" x2="683" y2="-3.97093" transform="matrix(-8.74228e-08 -1 -1 8.74228e-08 3167.88 1293)" stroke="#FF0000" stroke-width="7.94186"/>
<line y1="-3.97093" x2="683" y2="-3.97093" transform="matrix(-8.74228e-08 -1 -1 8.74228e-08 3318.77 1293)" stroke="#FF0000" stroke-width="7.94186"/>
<line y1="-3.97093" x2="683" y2="-3.97093" transform="matrix(-8.74228e-08 -1 -1 8.74228e-08 3469.67 1293)" stroke="#FF0000" stroke-width="7.94186"/>
<line y1="-3.97093" x2="683" y2="-3.97093" transform="matrix(-8.74228e-08 -1 -1 8.74228e-08 3620.56 1293)" stroke="#FF0000" stroke-width="7.94186"/>
<line y1="-3.97093" x2="683" y2="-3.97093" transform="matrix(-8.74228e-08 -1 -1 8.74228e-08 3771.46 1293)" stroke="#FF0000" stroke-width="7.94186"/>
<line y1="-3.97093" x2="683" y2="-3.97093" transform="matrix(-8.74228e-08 -1 -1 8.74228e-08 3922.35 1293)" stroke="#FF0000" stroke-width="7.94186"/>
<line y1="-2.82336" x2="1982" y2="-2.82336" transform="matrix(-1 9.81327e-08 2.65826e-07 1 3913.58 1293)" stroke="#FF0000" stroke-width="5.64673"/>
<line y1="-2.82336" x2="1982" y2="-2.82336" transform="matrix(-1 9.81327e-08 2.65826e-07 1 3913.58 1185.71)" stroke="#FF0000" stroke-width="5.64673"/>
<line y1="-2.82336" x2="1982" y2="-2.82336" transform="matrix(-1 9.81327e-08 2.65826e-07 1 3913.58 1078.42)" stroke="#FF0000" stroke-width="5.64673"/>
<line y1="-2.82336" x2="1982" y2="-2.82336" transform="matrix(-1 9.81327e-08 2.65826e-07 1 3913.58 971.135)" stroke="#FF0000" stroke-width="5.64673"/>
<line y1="-2.82336" x2="1982" y2="-2.82336" transform="matrix(-1 9.81327e-08 2.65826e-07 1 3913.58 863.847)" stroke="#FF0000" stroke-width="5.64673"/>
<line y1="-2.82336" x2="1982" y2="-2.82336" transform="matrix(-1 9.81327e-08 2.65826e-07 1 3913.58 756.559)" stroke="#FF0000" stroke-width="5.64673"/>
<line y1="-2.82336" x2="1982" y2="-2.82336" transform="matrix(-1 9.81327e-08 2.65826e-07 1 3913.58 649.271)" stroke="#FF0000" stroke-width="5.64673"/>
<line y1="-3.97093" x2="683" y2="-3.97093" transform="matrix(1.74846e-07 1 1 -1.74846e-07 1969.64 0.000427246)" stroke="#FF0000" stroke-width="7.94186"/>
<line y1="-3.97093" x2="683" y2="-3.97093" transform="matrix(1.74846e-07 1 1 -1.74846e-07 1818.74 0.000427246)" stroke="#FF0000" stroke-width="7.94186"/>
<line y1="-3.97093" x2="683" y2="-3.97093" transform="matrix(1.74846e-07 1 1 -1.74846e-07 1667.85 0.000488281)" stroke="#FF0000" stroke-width="7.94186"/>
<line y1="-3.97093" x2="683" y2="-3.97093" transform="matrix(1.74846e-07 1 1 -1.74846e-07 1516.95 0.000488281)" stroke="#FF0000" stroke-width="7.94186"/>
<line y1="-3.97093" x2="683" y2="-3.97093" transform="matrix(1.74846e-07 1 1 -1.74846e-07 1366.05 0.000549316)" stroke="#FF0000" stroke-width="7.94186"/>
<line y1="-3.97093" x2="683" y2="-3.97093" transform="matrix(1.74846e-07 1 1 -1.74846e-07 1215.16 0.000549316)" stroke="#FF0000" stroke-width="7.94186"/>
<line y1="-3.97093" x2="683" y2="-3.97093" transform="matrix(1.74846e-07 1 1 -1.74846e-07 1064.27 0.000610352)" stroke="#FF0000" stroke-width="7.94186"/>
<line y1="-3.97093" x2="683" y2="-3.97093" transform="matrix(1.74846e-07 1 1 -1.74846e-07 913.369 0.000610352)" stroke="#FF0000" stroke-width="7.94186"/>
<line y1="-3.97093" x2="683" y2="-3.97093" transform="matrix(1.74846e-07 1 1 -1.74846e-07 762.475 0.000610352)" stroke="#FF0000" stroke-width="7.94186"/>
<line y1="-3.97093" x2="683" y2="-3.97093" transform="matrix(1.74846e-07 1 1 -1.74846e-07 611.578 0.000671387)" stroke="#FF0000" stroke-width="7.94186"/>
<line y1="-3.97093" x2="683" y2="-3.97093" transform="matrix(1.74846e-07 1 1 -1.74846e-07 460.684 0.000671387)" stroke="#FF0000" stroke-width="7.94186"/>
<line y1="-3.97093" x2="683" y2="-3.97093" transform="matrix(1.74846e-07 1 1 -1.74846e-07 309.787 0.000732422)" stroke="#FF0000" stroke-width="7.94186"/>
<line y1="-3.97093" x2="683" y2="-3.97093" transform="matrix(1.74846e-07 1 1 -1.74846e-07 158.893 0.000732422)" stroke="#FF0000" stroke-width="7.94186"/>
<line y1="-3.97093" x2="683" y2="-3.97093" transform="matrix(1.74846e-07 1 1 -1.74846e-07 7.99609 0.000793457)" stroke="#FF0000" stroke-width="7.94186"/>
<line y1="-2.82336" x2="1982" y2="-2.82336" transform="matrix(1 -1.85555e-07 -3.53249e-07 -1 16.7734 0.000610352)" stroke="#FF0000" stroke-width="5.64673"/>
<line y1="-2.82336" x2="1982" y2="-2.82336" transform="matrix(1 -1.85555e-07 -3.53249e-07 -1 16.7734 107.289)" stroke="#FF0000" stroke-width="5.64673"/>
<line y1="-2.82336" x2="1982" y2="-2.82336" transform="matrix(1 -1.85555e-07 -3.53249e-07 -1 16.7734 214.576)" stroke="#FF0000" stroke-width="5.64673"/>
<line y1="-2.82336" x2="1982" y2="-2.82336" transform="matrix(1 -1.85555e-07 -3.53249e-07 -1 16.7734 321.864)" stroke="#FF0000" stroke-width="5.64673"/>
<line y1="-2.82336" x2="1982" y2="-2.82336" transform="matrix(1 -1.85555e-07 -3.53249e-07 -1 16.7734 429.152)" stroke="#FF0000" stroke-width="5.64673"/>
<line y1="-2.82336" x2="1982" y2="-2.82336" transform="matrix(1 -1.85555e-07 -3.53249e-07 -1 16.7734 536.44)" stroke="#FF0000" stroke-width="5.64673"/>
<line y1="-2.82336" x2="1982" y2="-2.82336" transform="matrix(1 -1.85555e-07 -3.53249e-07 -1 16.7734 643.728)" stroke="#FF0000" stroke-width="5.64673"/>
</g>
<path opacity="0.77" d="M1588.6 6.5L1588.6 1291" stroke="#00CCFF" stroke-width="5.64673"/>
<path opacity="0.77" d="M1512.6 6.5L1512.6 1291" stroke="#00CCFF" stroke-width="5.64673"/>
<path opacity="0.77" d="M3021.78 1291L3021.78 6.5" stroke="#00CCFF" stroke-width="5.64673"/>
<path opacity="0.77" d="M3170.78 1291L3170.78 6.5" stroke="#00CCFF" stroke-width="5.64673"/>
<path d="M1517.7 432.419C1515.21 432.259 1514.09 432.124 1512.96 432.124C1434.96 432.117 1356.96 432.087 1278.96 432.286C1276.64 432.291 1273.54 434.13 1272.11 436.105C1257.05 456.936 1242.26 477.974 1227.38 498.945C1222.24 506.191 1217.06 513.41 1211.46 521.251C1209.59 518.841 1208.11 517.104 1206.8 515.246C1188.41 489.12 1170.02 462.999 1151.72 436.806C1149.58 433.746 1147.47 431.992 1143.39 432C1066.35 432.152 989.31 432.118 912.271 432.138C910.43 432.138 908.588 432.314 905.777 432.458C907.675 435.366 909.053 437.644 910.587 439.805C956.71 504.773 1002.82 569.751 1049.12 634.594C1050.49 636.52 1053.78 637.962 1056.2 638.01C1073.3 638.354 1090.4 638.285 1107.49 638.31C1109.12 638.312 1110.74 638.046 1113.33 637.821C1076.64 586.041 1040.49 535.021 1003.87 483.334C1005.86 482.925 1006.55 482.658 1007.25 482.657C1044.33 482.626 1081.41 482.559 1118.49 482.767C1120.45 482.778 1123.01 484.685 1124.28 486.462C1150.76 523.565 1177.1 560.775 1203.46 597.971C1205.89 601.406 1208.25 604.895 1211.04 608.931C1213.18 606.134 1214.87 604.055 1216.42 601.871C1243.34 563.877 1270.28 525.904 1297.07 487.813C1299.68 484.107 1302.36 482.493 1306.96 482.519C1341.73 482.72 1376.51 482.619 1411.28 482.635C1413.29 482.635 1415.3 482.831 1418.75 483.01C1382 535.097 1345.97 586.176 1309.25 638.241C1328.58 638.241 1346.43 638.062 1364.27 638.354C1369.38 638.437 1372.6 636.943 1375.67 632.586C1411.73 581.492 1448.01 530.56 1484.23 479.579C1495.15 464.204 1506.06 448.816 1517.7 432.415L1517.7 432.419ZM1188.61 641.616C1186.5 641.254 1185.59 640.968 1184.69 640.966C1164.91 640.905 1145.13 640.772 1125.35 641.001C1123.35 641.023 1120.76 642.8 1119.5 644.555C1110.18 657.52 1101.26 670.783 1091.93 683.733C1088.84 688.012 1088.77 691.14 1091.95 695.601C1129.23 747.946 1166.31 800.449 1203.44 852.908C1205.99 856.514 1208.57 860.099 1211.58 864.318C1220.26 852.021 1228.4 840.436 1236.59 828.887C1268.24 784.243 1299.87 739.582 1331.64 695.024C1334.29 691.307 1334.7 688.686 1331.85 684.745C1322.38 671.652 1313.48 658.131 1304 645.042C1302.48 642.941 1299.16 641.072 1296.64 641.031C1277.25 640.717 1257.85 640.87 1238.45 640.921C1237.24 640.924 1236.03 641.293 1234.33 641.571C1235.6 643.576 1236.46 645.088 1237.46 646.506C1247.3 660.54 1256.99 674.687 1267.12 688.5C1270.1 692.563 1269.82 695.319 1267.04 699.219C1251.2 721.409 1235.6 743.771 1219.91 766.073C1217.17 769.959 1214.42 773.829 1211.32 778.204C1209.6 775.995 1208.49 774.685 1207.5 773.28C1190.63 749.188 1173.98 724.934 1156.77 701.096C1152.66 695.411 1152.95 691.55 1157.1 686.4C1162.21 680.053 1166.61 673.105 1171.3 666.404C1176.87 658.449 1182.43 650.481 1188.62 641.616H1188.61Z" fill="white"/>
<path d="M1517.7 432.419C1506.06 448.82 1495.15 464.206 1484.23 479.583C1448.01 530.562 1411.73 581.496 1375.67 632.59C1372.6 636.947 1369.37 638.441 1364.27 638.358C1346.43 638.066 1328.57 638.245 1309.24 638.245C1345.97 586.18 1382 535.101 1418.75 483.014C1415.3 482.835 1413.29 482.641 1411.27 482.639C1376.5 482.623 1341.73 482.724 1306.96 482.523C1302.36 482.496 1299.67 484.11 1297.07 487.817C1270.28 525.907 1243.34 563.881 1216.42 601.875C1214.87 604.061 1213.18 606.138 1211.04 608.935C1208.25 604.899 1205.89 601.41 1203.45 597.975C1177.1 560.779 1150.76 523.569 1124.27 486.467C1123.01 484.689 1120.45 482.782 1118.48 482.771C1081.41 482.563 1044.33 482.629 1007.25 482.661C1006.55 482.661 1005.86 482.929 1003.87 483.338C1040.49 535.025 1076.64 586.045 1113.33 637.825C1110.74 638.05 1109.12 638.315 1107.49 638.314C1090.39 638.289 1073.29 638.358 1056.2 638.014C1053.77 637.966 1050.49 636.524 1049.11 634.598C1002.82 569.751 956.71 504.775 910.587 439.806C909.052 437.645 907.675 435.368 905.777 432.459C908.588 432.316 910.429 432.14 912.271 432.14C989.309 432.118 1066.35 432.152 1143.38 432C1147.47 431.992 1149.58 433.746 1151.71 436.806C1170.01 462.999 1188.41 489.12 1206.8 515.246C1208.11 517.104 1209.59 518.841 1211.46 521.251C1217.06 513.41 1222.23 506.191 1227.37 498.945C1242.25 477.974 1257.05 456.936 1272.11 436.105C1273.54 434.131 1276.64 432.293 1278.96 432.286C1356.96 432.086 1434.96 432.116 1512.96 432.124C1514.09 432.124 1515.21 432.259 1517.7 432.419Z" fill="white"/>
<path d="M1188.63 641.623C1182.44 650.489 1176.89 658.457 1171.32 666.412C1166.63 673.113 1162.22 680.06 1157.11 686.408C1152.96 691.558 1152.68 695.417 1156.78 701.104C1173.99 724.942 1190.64 749.196 1207.52 773.288C1208.5 774.694 1209.61 776.003 1211.33 778.212C1214.43 773.837 1217.19 769.967 1219.92 766.081C1235.61 743.78 1251.22 721.417 1267.06 699.227C1269.84 695.328 1270.11 692.572 1267.13 688.508C1257.01 674.695 1247.31 660.548 1237.47 646.514C1236.48 645.095 1235.61 643.583 1234.34 641.579C1236.04 641.301 1237.25 640.932 1238.47 640.929C1257.86 640.878 1277.26 640.725 1296.66 641.039C1299.18 641.079 1302.5 642.949 1304.02 645.05C1313.49 658.139 1322.39 671.66 1331.86 684.752C1334.71 688.694 1334.3 691.315 1331.65 695.032C1299.88 739.588 1268.25 784.251 1236.6 828.894C1228.41 840.444 1220.27 852.029 1211.59 864.326C1208.58 860.107 1206 856.522 1203.45 852.916C1166.32 800.457 1129.25 747.954 1091.96 695.609C1088.78 691.148 1088.86 688.019 1091.94 683.741C1101.28 670.791 1110.19 657.528 1119.51 644.563C1120.77 642.808 1123.37 641.032 1125.36 641.008C1145.14 640.78 1164.93 640.913 1184.71 640.973C1185.61 640.976 1186.51 641.262 1188.63 641.623H1188.63Z" fill="white"/>
<path d="M1731.4 701.806L1813.69 541.564H1880.93L1770.31 749.893H1689.58L1584.78 541.567H1650.37L1731.4 701.806Z" fill="white"/>
<path d="M2132.47 541.623V587.68H1966.96V622.501H2123.88V666.167H1966.96V702.74H2132.47V749.951H1907.22V541.623L2132.47 541.623Z" fill="white"/>
<path d="M2358.56 541.648C2378.56 540.492 2398.04 539.575 2413.61 552.884C2418.86 557.306 2422.2 562.605 2423.33 564.677C2431.66 580.015 2431.4 603.323 2431.4 606.271C2431.4 608.344 2431.4 627.824 2427.49 640.814C2426.93 642.289 2425.28 646.711 2422.77 650.256C2413.31 664.718 2394.4 668.224 2379.95 670.893C2396.09 670.893 2411.92 671.211 2421.38 684.16C2428.32 693.324 2428.32 702.765 2428.32 713.683V749.978H2367.46V721.93C2367.46 716.351 2367.2 710.734 2364.12 705.436C2359.69 698.623 2352.45 697.747 2344.68 696.87H2236.83V749.978H2175.45V541.65L2358.57 541.65L2358.56 541.648ZM2237.13 645.233H2338.26C2349.67 645.233 2357.18 644.635 2361.9 641.966C2370.8 636.668 2371.06 621.607 2371.06 620.133C2371.06 618.659 2371.06 605.391 2365.81 598.618C2361.08 592.681 2352.45 592.123 2343.55 591.527H2237.13V645.233Z" fill="white"/>
<path d="M2531.3 541.623V663.219C2531.56 672.064 2531.86 682.104 2536.85 690.071C2543.53 700.07 2556.29 701.544 2577.71 701.266H2640.5C2653.29 699.514 2658.02 697.72 2662.18 693.895C2668.56 687.4 2669.69 676.166 2670.25 667.321V541.623H2730.81V679.713C2730.55 684.734 2730.25 689.753 2729.42 694.773C2728.33 703.02 2724.69 725.77 2704.13 739.316C2689.69 748.757 2675.24 750.231 2659.11 751.706C2640.5 752.024 2617.15 752.622 2598.54 752.622C2577.15 752.622 2555.76 751.705 2534.33 750.549C2530.47 749.951 2526.31 749.355 2522.4 748.757C2505.7 745.531 2490.43 738.758 2480.98 722.822C2473.77 710.432 2472.38 698.32 2471 684.454V541.623H2531.3Z" fill="white"/>
<path d="M2829.55 681.793C2829.55 686.534 2829.55 690.358 2830.94 693.905C2833.15 700.678 2839.01 703.346 2851.76 704.502C2864.3 705.1 2879.49 705.696 2892.02 705.976C2905.35 706.294 2918.7 705.698 2932.33 705.418C2934.24 705.418 2942.87 706.294 2948.98 703.626C2955.1 701.276 2960.39 694.781 2960.39 687.69C2960.39 685.938 2960.09 682.391 2957.61 678.566C2952.89 671.475 2946.77 671.753 2932.85 669.681C2903.96 669.123 2872.06 668.805 2843.43 667.051C2834.28 666.452 2825.09 665.576 2815.93 664.978C2813.15 664.38 2810.08 664.102 2807.3 663.504C2803.43 662.906 2789.81 660.556 2780.36 649.64C2774.24 642.549 2768.69 629.879 2768.69 608.604C2768.69 607.13 2768.69 584.421 2773.68 571.153C2775.63 566.132 2778.41 561.711 2781.75 557.885C2793.15 544.897 2808.12 542.825 2824.52 540.752C2845.95 539.876 2870.34 539 2891.72 539C2915.36 539 2938.96 540.474 2962.6 541.63L2973.45 543.423C2977.61 543.981 2991.23 546.649 3001.78 556.968C3015.4 570.275 3015.4 588.841 3014.83 607.128L2955.36 606.85C2951.76 590.913 2948.98 588.841 2933.15 587.089C2918.7 586.213 2903.96 585.615 2889.51 585.615C2878.1 585.615 2864 586.213 2852.59 586.491C2845.08 586.769 2838.14 587.089 2833.42 593.582C2832.59 594.738 2830.11 598.603 2830.11 603.023C2830.11 607.444 2832.33 610.992 2833.42 612.146C2838.71 619.237 2845.39 619.517 2852.89 620.116L2973.71 624.538C2989.85 626.331 2995.96 628.681 3002.9 633.98C3012.88 641.669 3021.78 655.255 3021.78 685.613C3021.78 709.239 3017.91 720.434 3011.8 729.597C3009.28 733.144 3007.07 735.813 3003.73 738.443C2994.57 745.534 2982.6 747.606 2970.37 749.679C2946.21 751.153 2922.3 752.309 2898.14 752.309C2871.99 752.309 2842.87 750.557 2816.49 749.083C2803.44 747.01 2788.69 744.342 2778.97 733.146C2767.86 720.436 2768.13 697.131 2768.13 681.513L2829.55 681.791L2829.55 681.793Z" fill="white"/>
<path opacity="0.77" d="M3926.72 431L3.71868 431" stroke="#00CCFF" stroke-width="5.64673"/>
<path opacity="0.77" d="M3926.72 324L3.71868 324" stroke="#00CCFF" stroke-width="5.64673"/>
<path opacity="0.77" d="M757.72 1293L757.719 8.5" stroke="#00CCFF" stroke-width="5.64673"/>
<path opacity="0.77" d="M906.72 1293L906.719 8.5" stroke="#00CCFF" stroke-width="5.64673"/>
<path opacity="0.77" d="M3.71875 864.5L3926.72 864.5" stroke="#00CCFF" stroke-width="5.64673"/>
<path opacity="0.77" d="M3.71875 969.5L3926.72 969.5" stroke="#00CCFF" stroke-width="5.64673"/>
</svg>
