<svg width="1983" height="1294" viewBox="0 0 1983 1294" fill="none" xmlns="http://www.w3.org/2000/svg">
<g opacity="0.3">
<line x1="1968.8" y1="1293.02" x2="1968.8" y2="610.021" stroke="#FF0000" stroke-width="7.94186"/>
<line x1="1817.91" y1="1293.02" x2="1817.91" y2="610.021" stroke="#FF0000" stroke-width="7.94186"/>
<line x1="1667.01" y1="1293.02" x2="1667.01" y2="610.021" stroke="#FF0000" stroke-width="7.94186"/>
<line x1="1516.12" y1="1293.02" x2="1516.12" y2="610.021" stroke="#FF0000" stroke-width="7.94186"/>
<line x1="1365.22" y1="1293.02" x2="1365.22" y2="610.021" stroke="#FF0000" stroke-width="7.94186"/>
<line x1="1214.32" y1="1293.02" x2="1214.32" y2="610.021" stroke="#FF0000" stroke-width="7.94186"/>
<line x1="1063.43" y1="1293.02" x2="1063.43" y2="610.021" stroke="#FF0000" stroke-width="7.94186"/>
<line x1="912.533" y1="1293.02" x2="912.533" y2="610.021" stroke="#FF0000" stroke-width="7.94186"/>
<line x1="761.638" y1="1293.02" x2="761.638" y2="610.021" stroke="#FF0000" stroke-width="7.94186"/>
<line x1="610.742" y1="1293.02" x2="610.742" y2="610.021" stroke="#FF0000" stroke-width="7.94186"/>
<line x1="459.847" y1="1293.02" x2="459.848" y2="610.021" stroke="#FF0000" stroke-width="7.94186"/>
<line x1="308.951" y1="1293.02" x2="308.951" y2="610.021" stroke="#FF0000" stroke-width="7.94186"/>
<line x1="158.056" y1="1293.02" x2="158.056" y2="610.021" stroke="#FF0000" stroke-width="7.94186"/>
<line x1="7.16188" y1="1293.02" x2="7.16194" y2="610.021" stroke="#FF0000" stroke-width="7.94186"/>
<line x1="13.5117" y1="1290.2" x2="1968.51" y2="1290.2" stroke="#FF0000" stroke-width="5.64673"/>
<line x1="13.5117" y1="1182.91" x2="1968.51" y2="1182.91" stroke="#FF0000" stroke-width="5.64673"/>
<line x1="13.5117" y1="1075.62" x2="1968.51" y2="1075.62" stroke="#FF0000" stroke-width="5.64673"/>
<line x1="13.5117" y1="968.333" x2="1968.51" y2="968.333" stroke="#FF0000" stroke-width="5.64673"/>
<line y1="-3.97093" x2="683" y2="-3.97093" transform="matrix(1.74846e-07 1 1 -1.74846e-07 1971.83 0.0133057)" stroke="#FF0000" stroke-width="7.94186"/>
<line y1="-3.97093" x2="683" y2="-3.97093" transform="matrix(1.74846e-07 1 1 -1.74846e-07 1820.93 0.0133057)" stroke="#FF0000" stroke-width="7.94186"/>
<line y1="-3.97093" x2="683" y2="-3.97093" transform="matrix(1.74846e-07 1 1 -1.74846e-07 1670.04 0.0133667)" stroke="#FF0000" stroke-width="7.94186"/>
<line y1="-3.97093" x2="683" y2="-3.97093" transform="matrix(1.74846e-07 1 1 -1.74846e-07 1519.14 0.0133667)" stroke="#FF0000" stroke-width="7.94186"/>
<line y1="-3.97093" x2="683" y2="-3.97093" transform="matrix(1.74846e-07 1 1 -1.74846e-07 1368.24 0.0134277)" stroke="#FF0000" stroke-width="7.94186"/>
<line y1="-3.97093" x2="683" y2="-3.97093" transform="matrix(1.74846e-07 1 1 -1.74846e-07 1217.35 0.0134277)" stroke="#FF0000" stroke-width="7.94186"/>
<line y1="-3.97093" x2="683" y2="-3.97093" transform="matrix(1.74846e-07 1 1 -1.74846e-07 1066.46 0.0134888)" stroke="#FF0000" stroke-width="7.94186"/>
<line y1="-3.97093" x2="683" y2="-3.97093" transform="matrix(1.74846e-07 1 1 -1.74846e-07 915.559 0.0134888)" stroke="#FF0000" stroke-width="7.94186"/>
<line y1="-3.97093" x2="683" y2="-3.97093" transform="matrix(1.74846e-07 1 1 -1.74846e-07 764.664 0.0134888)" stroke="#FF0000" stroke-width="7.94186"/>
<line y1="-3.97093" x2="683" y2="-3.97093" transform="matrix(1.74846e-07 1 1 -1.74846e-07 613.768 0.0135498)" stroke="#FF0000" stroke-width="7.94186"/>
<line y1="-3.97093" x2="683" y2="-3.97093" transform="matrix(1.74846e-07 1 1 -1.74846e-07 462.873 0.0135498)" stroke="#FF0000" stroke-width="7.94186"/>
<line y1="-3.97093" x2="683" y2="-3.97093" transform="matrix(1.74846e-07 1 1 -1.74846e-07 311.977 0.0136108)" stroke="#FF0000" stroke-width="7.94186"/>
<line y1="-3.97093" x2="683" y2="-3.97093" transform="matrix(1.74846e-07 1 1 -1.74846e-07 161.082 0.0136108)" stroke="#FF0000" stroke-width="7.94186"/>
<line y1="-3.97093" x2="683" y2="-3.97093" transform="matrix(1.74846e-07 1 1 -1.74846e-07 10.1875 0.0136719)" stroke="#FF0000" stroke-width="7.94186"/>
<line y1="-2.82336" x2="1963" y2="-2.82336" transform="matrix(1 -1.87351e-07 -3.49863e-07 -1 9.50195 0.000427246)" stroke="#FF0000" stroke-width="5.64673"/>
<line y1="-2.82336" x2="1963" y2="-2.82336" transform="matrix(1 -1.87351e-07 -3.49863e-07 -1 9.50195 107.288)" stroke="#FF0000" stroke-width="5.64673"/>
<line y1="-2.82336" x2="1963" y2="-2.82336" transform="matrix(1 -1.87351e-07 -3.49863e-07 -1 9.50195 214.576)" stroke="#FF0000" stroke-width="5.64673"/>
<line y1="-2.82336" x2="1963" y2="-2.82336" transform="matrix(1 -1.87351e-07 -3.49863e-07 -1 9.50195 321.864)" stroke="#FF0000" stroke-width="5.64673"/>
<line y1="-2.82336" x2="1963" y2="-2.82336" transform="matrix(1 -1.87351e-07 -3.49863e-07 -1 9.50195 429.152)" stroke="#FF0000" stroke-width="5.64673"/>
<line x1="9.50195" y1="533.617" x2="1972.5" y2="533.617" stroke="#FF0000" stroke-width="5.64673"/>
<line x1="9.50195" y1="640.905" x2="1972.5" y2="640.905" stroke="#FF0000" stroke-width="5.64673"/>
<line x1="9.50195" y1="748.193" x2="1972.5" y2="748.193" stroke="#FF0000" stroke-width="5.64673"/>
<line x1="9.50195" y1="855.482" x2="1972.5" y2="855.482" stroke="#FF0000" stroke-width="5.64673"/>
</g>
<path d="M444.156 1024.62L521.691 862.594H585.047L480.819 1073.24H404.746L306 862.596H367.801L444.156 1024.62Z" fill="white"/>
<path d="M822.056 862.653V909.223H666.106V944.432H813.96V988.584H666.106V1025.56H822.056V1073.3H609.82V862.653L822.056 862.653Z" fill="white"/>
<path d="M1035.09 862.677C1053.94 861.508 1072.29 860.582 1086.96 874.038C1091.91 878.51 1095.05 883.868 1096.12 885.963C1103.97 901.472 1103.72 925.039 1103.72 928.02C1103.72 930.116 1103.72 949.813 1100.04 962.948C1099.51 964.438 1097.96 968.91 1095.59 972.494C1086.68 987.117 1068.86 990.663 1055.25 993.361C1070.45 993.361 1085.37 993.683 1094.28 1006.78C1100.82 1016.04 1100.82 1025.59 1100.82 1036.63V1073.33H1043.47V1044.97C1043.47 1039.33 1043.23 1033.65 1040.33 1028.29C1036.15 1021.4 1029.33 1020.51 1022.01 1019.63H920.392V1073.33H862.551V862.679L1035.09 862.679L1035.09 862.677ZM920.674 967.415H1015.97C1026.71 967.415 1033.78 966.811 1038.24 964.112C1046.62 958.755 1046.87 943.527 1046.87 942.036C1046.87 940.546 1046.87 927.13 1041.92 920.282C1037.46 914.278 1029.33 913.714 1020.95 913.112H920.674V967.415Z" fill="white"/>
<path d="M1197.85 862.653V985.603C1198.09 994.547 1198.38 1004.7 1203.08 1012.75C1209.37 1022.86 1221.39 1024.35 1241.58 1024.07H1300.74C1312.8 1022.3 1317.25 1020.49 1321.18 1016.62C1327.19 1010.05 1328.25 998.695 1328.78 989.751V862.653H1385.84V1002.28C1385.59 1007.36 1385.31 1012.43 1384.53 1017.51C1383.51 1025.85 1380.08 1048.85 1360.7 1062.55C1347.09 1072.09 1333.48 1073.58 1318.28 1075.07C1300.74 1075.4 1278.74 1076 1261.2 1076C1241.05 1076 1220.9 1075.07 1200.71 1073.91C1197.07 1073.3 1193.15 1072.7 1189.47 1072.09C1173.74 1068.83 1159.34 1061.98 1150.44 1045.87C1143.65 1033.34 1142.34 1021.09 1141.03 1007.07V862.653H1197.85Z" fill="white"/>
<path d="M1478.88 1004.38C1478.88 1009.18 1478.88 1013.04 1480.19 1016.63C1482.27 1023.48 1487.79 1026.18 1499.81 1027.35C1511.62 1027.95 1525.94 1028.55 1537.74 1028.84C1550.3 1029.16 1562.88 1028.56 1575.72 1028.27C1577.52 1028.27 1585.65 1029.16 1591.41 1026.46C1597.18 1024.08 1602.16 1017.52 1602.16 1010.35C1602.16 1008.57 1601.88 1004.99 1599.55 1001.12C1595.09 993.951 1589.33 994.232 1576.21 992.137C1548.98 991.573 1518.94 991.251 1491.96 989.477C1483.33 988.873 1474.67 987.987 1466.04 987.382C1463.43 986.777 1460.53 986.496 1457.91 985.891C1454.27 985.286 1441.44 982.91 1432.53 971.873C1426.76 964.703 1421.53 951.892 1421.53 930.38C1421.53 928.889 1421.53 905.927 1426.23 892.512C1428.07 887.435 1430.69 882.965 1433.83 879.096C1444.58 865.964 1458.69 863.868 1474.14 861.773C1494.33 860.887 1517.31 860.001 1537.46 860.001C1559.73 860.001 1581.97 861.492 1604.25 862.661L1614.46 864.473C1618.39 865.037 1631.22 867.735 1641.16 878.17C1653.99 891.624 1653.99 910.397 1653.46 928.887L1597.42 928.606C1594.03 912.493 1591.41 910.397 1576.49 908.626C1562.88 907.74 1548.98 907.135 1535.37 907.135C1524.63 907.135 1511.33 907.74 1500.59 908.021C1493.51 908.302 1486.98 908.626 1482.52 915.191C1481.74 916.36 1479.41 920.267 1479.41 924.737C1479.41 929.207 1481.49 932.795 1482.52 933.962C1487.5 941.132 1493.8 941.415 1500.87 942.02L1614.71 946.492C1629.91 948.304 1635.68 950.68 1642.22 956.038C1651.62 963.813 1660 977.55 1660 1008.25C1660 1032.13 1656.36 1043.46 1650.6 1052.72C1648.23 1056.31 1646.14 1059 1643 1061.66C1634.37 1068.83 1623.09 1070.93 1611.57 1073.03C1588.8 1074.52 1566.27 1075.68 1543.51 1075.68C1518.86 1075.68 1491.43 1073.91 1466.57 1072.42C1454.27 1070.33 1440.38 1067.63 1431.22 1056.31C1420.75 1043.46 1421 1019.89 1421 1004.1L1478.88 1004.38L1478.88 1004.38Z" fill="white"/>
<path d="M1368 215.519C1364.93 215.322 1363.53 215.154 1362.14 215.154C1265.64 215.146 1169.15 215.109 1072.66 215.355C1069.78 215.362 1065.95 217.636 1064.19 220.079C1045.55 245.85 1027.25 271.875 1008.85 297.818C1002.49 306.782 996.083 315.713 989.161 325.412C986.838 322.431 985.013 320.283 983.395 317.984C960.645 285.663 937.885 253.35 915.247 220.947C912.602 217.161 909.995 214.991 904.942 215.001C809.641 215.189 714.337 215.147 619.034 215.172C616.756 215.172 614.477 215.39 611 215.568C613.347 219.166 615.053 221.983 616.95 224.656C674.008 305.028 731.053 385.411 788.321 465.627C790.021 468.009 794.087 469.793 797.089 469.853C818.235 470.278 839.389 470.194 860.541 470.224C862.55 470.227 864.56 469.898 867.765 469.619C822.377 405.563 777.654 342.446 732.347 278.505C734.808 278 735.67 277.67 736.531 277.668C782.401 277.63 828.27 277.547 874.138 277.804C876.571 277.818 879.733 280.176 881.303 282.376C914.065 328.275 946.649 374.306 979.255 420.321C982.265 424.571 985.188 428.886 988.641 433.88C991.284 430.42 993.379 427.848 995.296 425.145C1028.59 378.144 1061.92 331.168 1095.06 284.047C1098.29 279.462 1101.61 277.465 1107.3 277.497C1150.31 277.746 1193.33 277.621 1236.35 277.641C1238.84 277.641 1241.33 277.884 1245.59 278.105C1200.13 342.541 1155.56 405.729 1110.12 470.139C1134.04 470.139 1156.12 469.918 1178.2 470.278C1184.51 470.381 1188.5 468.533 1192.3 463.144C1236.91 399.935 1281.79 336.928 1326.59 273.861C1340.11 254.84 1353.6 235.804 1368 215.514L1368 215.519ZM960.892 474.314C958.273 473.867 957.158 473.513 956.043 473.509C931.571 473.435 907.096 473.27 882.628 473.553C880.157 473.581 876.947 475.779 875.388 477.95C863.862 493.989 852.831 510.396 841.283 526.417C837.467 531.709 837.376 535.58 841.307 541.098C887.433 605.853 933.296 670.805 979.232 735.701C982.389 740.161 985.575 744.596 989.299 749.816C1000.04 734.603 1010.11 720.272 1020.24 705.984C1059.4 650.756 1098.52 595.506 1137.82 540.384C1141.1 535.786 1141.61 532.543 1138.08 527.668C1126.37 511.471 1115.36 494.745 1103.64 478.553C1101.76 475.953 1097.65 473.641 1094.54 473.591C1070.54 473.202 1046.54 473.392 1022.55 473.455C1021.05 473.458 1019.55 473.915 1017.45 474.259C1019.01 476.739 1020.09 478.609 1021.32 480.364C1033.49 497.725 1045.48 515.225 1058.01 532.314C1061.7 537.339 1061.36 540.75 1057.91 545.574C1038.32 573.025 1019.01 600.689 999.604 628.278C996.221 633.085 992.812 637.873 988.981 643.285C986.854 640.553 985.476 638.931 984.258 637.194C963.387 607.39 942.785 577.386 921.497 547.896C916.419 540.863 916.769 536.087 921.902 529.716C928.229 521.864 933.675 513.268 939.478 504.979C946.369 495.138 953.237 485.281 960.895 474.314H960.892Z" fill="white"/>
<path d="M1368 215.519C1353.6 235.809 1340.1 254.843 1326.59 273.866C1281.79 336.931 1236.91 399.94 1192.3 463.149C1188.5 468.537 1184.51 470.386 1178.19 470.283C1156.12 469.923 1134.04 470.144 1110.12 470.144C1155.56 405.734 1200.13 342.546 1245.58 278.11C1241.33 277.889 1238.83 277.648 1236.34 277.646C1193.33 277.626 1150.31 277.751 1107.29 277.502C1101.6 277.469 1098.28 279.465 1095.06 284.052C1061.92 331.172 1028.59 378.149 995.293 425.15C993.378 427.855 991.282 430.425 988.638 433.885C985.185 428.891 982.262 424.576 979.251 420.326C946.645 374.311 914.062 328.28 881.3 282.381C879.73 280.181 876.568 277.822 874.134 277.809C828.267 277.552 782.397 277.633 736.528 277.673C735.667 277.673 734.805 278.005 732.344 278.51C777.651 342.451 822.374 405.568 867.762 469.624C864.556 469.903 862.547 470.23 860.538 470.229C839.386 470.199 818.23 470.283 797.086 469.858C794.085 469.798 790.02 468.014 788.318 465.632C731.053 385.411 674.008 305.03 616.95 224.658C615.051 221.985 613.347 219.167 611 215.569C614.477 215.392 616.755 215.174 619.034 215.174C714.336 215.147 809.639 215.189 904.941 215.001C909.992 214.991 912.601 217.161 915.245 220.947C937.883 253.35 960.643 285.663 983.393 317.984C985.011 320.283 986.836 322.431 989.159 325.412C996.081 315.713 1002.48 306.782 1008.84 297.818C1027.25 271.875 1045.55 245.849 1064.19 220.079C1065.95 217.637 1069.78 215.363 1072.66 215.355C1169.15 215.107 1265.64 215.144 1362.13 215.154C1363.53 215.154 1364.92 215.322 1368 215.519Z" fill="white"/>
<path d="M960.915 474.323C953.257 485.29 946.388 495.148 939.498 504.989C933.693 513.278 928.248 521.873 921.922 529.726C916.788 536.096 916.44 540.871 921.517 547.906C942.804 577.395 963.407 607.4 984.278 637.203C985.495 638.943 986.874 640.562 989 643.295C992.832 637.883 996.24 633.095 999.623 628.288C1019.03 600.7 1038.34 573.035 1057.93 545.583C1061.38 540.761 1061.72 537.351 1058.03 532.324C1045.5 515.235 1033.51 497.734 1021.34 480.373C1020.11 478.617 1019.03 476.747 1017.47 474.268C1019.57 473.924 1021.06 473.468 1022.57 473.464C1046.56 473.401 1070.56 473.212 1094.55 473.601C1097.67 473.65 1101.78 475.963 1103.66 478.563C1115.38 494.754 1126.39 511.481 1138.1 527.677C1141.63 532.553 1141.12 535.796 1137.84 540.394C1098.54 595.514 1059.42 650.765 1020.26 705.993C1010.13 720.281 1000.06 734.612 989.319 749.826C985.596 744.606 982.408 740.171 979.251 735.71C933.315 670.814 887.453 605.863 841.327 541.108C837.396 535.59 837.489 531.719 841.302 526.427C852.85 510.406 863.883 493.998 875.407 477.96C876.968 475.788 880.178 473.592 882.647 473.562C907.116 473.28 931.591 473.444 956.062 473.519C957.179 473.522 958.294 473.876 960.911 474.323H960.915Z" fill="white"/>
</svg>
